<svg xmlns="http://www.w3.org/2000/svg" xmlns:xlink="http://www.w3.org/1999/xlink" xmlns:lucid="lucid" width="1756.32" height="965.49"><g transform="translate(-1676.2144343634704 1631.989071071282)" lucid:page-tab-id="7OurQJPPDfW5"><path d="M1696-2592h1760V64H1696z" fill="#fff"/><path d="M2024.47-1194.1a6 6 0 0 1 6-6h1346.66a6 6 0 0 1 6 6v399.52a6 6 0 0 1-6 6H2030.47a6 6 0 0 1-6-6z" fill-opacity="0"/><path d="M2028.92-1199.88l.6-.15.95-.07h2m8.02 0h4m8.02 0h4m8.02 0h4m8.02 0h4m8.03 0h4m8 0h4.02m8 0h4.02m8.02 0h4m8.02 0h4m8.03 0h4m8.03 0h4m8.02 0h4m8.03 0h4m8.02 0h4m8.02 0h4m8.03 0h4m8.02 0h4m8.03 0h4m8.02 0h4m8.02 0h4m8.03 0h4m8.02 0h4m8 0h4.02m8.02 0h4m8.02 0h4m8.03 0h4m8 0h4.02m8 0h4.02m8.02 0h4m8.02 0h4m8.03 0h4m8.03 0h4m8.02 0h4m8.03 0h4m8.02 0h4m8.02 0h4m8.03 0h4m8.02 0h4m8.03 0h4m8.02 0h4m8.02 0h4m8.03 0h4m8.02 0h4m8 0h4.02m8.02 0h4m8.02 0h4m8.03 0h4m8 0h4.02m8 0h4.02m8.02 0h4m8.02 0h4m8.02 0h4m8.03 0h4m8.02 0h4m8.03 0h4m8.02 0h4m8.02 0h4m8.03 0h4m8.02 0h4m8.02 0h4m8.02 0h4m8.02 0h4m8.03 0h4m8.02 0h4m8 0h4.02m8.02 0h4m8.02 0h4m8.02 0h4m8.03 0h4.02m8 0h4.02m8.02 0h4m8.02 0h4m8.02 0h4m8.03 0h4m8.02 0h4m8.02 0h4m8.03 0h4m8.02 0h4m8.02 0h4m8.03 0h4m8.02 0h4m8.02 0h4m8.02 0h4m8.02 0h4m8.03 0h4m8 0h4.02m8 0h4.02m8.02 0h4m8.02 0h4m8.03 0h4m8.03 0h4m8.02 0h4m8.03 0h4m8.02 0h4m8.03 0h4m8.02 0h4m8.02 0h4m8.03 0h4m8.02 0h4m8.02 0h4m8.03 0h4m8.02 0h4m8.02 0h4m8.02 0h4m8.02 0h4m8.03 0h4m8 0h4.02m8 0h4.02m8.02 0h4m8.02 0h4m8.03 0h4m8.03 0h2l.94.07.6.15m4.24 4.23l.16.6.07.95v2.02m0 8.07v4.02m0 8.08v4.03m0 8.07v4.04m0 8.07v4.04m0 8.08v4.03m0 8.07v4.04m0 8.07v4.03m0 8.07v4.04m0 8.07v4.04m0 8.07v4.03m0 8.07v4.04m0 8.06v4.04m0 8.07v4.03m0 8.07v4.04m0 8.08v4.04m0 8.07v4.02m0 8.07v4.03m0 8.07v4.04m0 8.07v4.04m0 8.07v4.05m0 8.07v4.03m0 8.08v4.03m0 8.07v4.04m0 8.07v4.03m0 8.08v4.03m0 8.07v4.04m0 8.06v4.03m0 8.07v4.03m0 8.07v4.04m0 8.08v4.03m0 8.08v4.04m0 8.07v4.03m0 8.07v2.02l-.07.94-.15.6m-4.22 4.24l-.6.14-.95.08h-2m-8.02 0h-4m-8 0h-4.02m-8 0h-4.02m-8.02 0h-4m-8.02 0h-4m-8.03 0h-4m-8.03 0h-4m-8.02 0h-4m-8.03 0h-4m-8.02 0h-4m-8.02 0h-4m-8.03 0h-4m-8.02 0h-4m-8.03 0h-4m-8.02 0h-4m-8.02 0h-4m-8.03 0h-4m-8.02 0h-4m-8 0h-4.02m-8.02 0h-4m-8.02 0h-4m-8.03 0h-4m-8 0h-4.02m-8 0h-4.02m-8.02 0h-4m-8.02 0h-4m-8.02 0h-4m-8.03 0h-4m-8.02 0h-4m-8.03 0h-4m-8.02 0h-4m-8.02 0h-4m-8.03 0h-4m-8.02 0h-4m-8.02 0h-4m-8.02 0h-4m-8.02 0h-4m-8.03 0h-4m-8.02 0h-4m-8 0h-4.02m-8.02 0h-4m-8.02 0h-4m-8.02 0h-4m-8.03 0h-4.02m-8 0h-4.02m-8.02 0h-4m-8.02 0h-4m-8.02 0h-4m-8.03 0h-4m-8.02 0h-4m-8.02 0h-4m-8.03 0h-4m-8.02 0h-4m-8.03 0h-4m-8.02 0h-4m-8.02 0h-4m-8.02 0h-4m-8.02 0h-4m-8.03 0h-4m-8.02 0h-4m-8 0h-4.02m-8.02 0h-4m-8.02 0h-4m-8.02 0h-4m-8.03 0h-4m-8.03 0h-4m-8.03 0h-4m-8.02 0h-4m-8.02 0h-4m-8.03 0h-4m-8.02 0h-4m-8.02 0h-4m-8.03 0h-4m-8.02 0h-4m-8.03 0h-4m-8.02 0h-4m-8.02 0h-4m-8.02 0h-4m-8.02 0h-4m-8.02 0h-4m-8.03 0h-4m-8 0h-4.02m-8 0h-4.02m-8.02 0h-4m-8.02 0h-4m-8.03 0h-4m-8.03 0h-4m-8.02 0h-4m-8.03 0h-4m-8.02 0h-4m-8.03 0h-4m-8.02 0h-4m-8.02 0h-4m-8.03 0h-4m-8.02 0h-4m-8.02 0h-4m-8.03 0h-4m-8.02 0h-4m-8.02 0h-4m-8.02 0h-4m-8.02 0h-4m-8.03 0h-4m-8 0h-4.02m-8 0h-4.02m-8.02 0h-4m-8.02 0h-4m-8.03 0h-4m-8.03 0h-4m-8.02 0h-4m-8.03 0h-4m-8.02 0h-4m-8.02 0h-2l-.95-.08-.6-.14m-4.24-4.24l-.15-.6-.08-.94v-2.02m0-8.07v-4.04m0-8.08v-4.04m0-8.07v-4.02m0-8.07v-4.03m0-8.07v-4.03m0-8.08v-4.04m0-8.07v-4.05m0-8.07v-4.03m0-8.07v-4.04m0-8.07v-4.04m0-8.07v-4.03m0-8.08v-4.03m0-8.07V-954m0-8.06v-4.03m0-8.06v-4.04m0-8.07v-4.04m0-8.08v-4.03m0-8.08v-4.04m0-8.07v-4.03m0-8.07v-4.03m0-8.07v-4.04m0-8.07v-4.05m0-8.07v-4.03m0-8.07v-4.04m0-8.07v-4.04m0-8.07v-4.03m0-8.07v-4.04m0-8.07v-4.04m0-8.06v-4.03m0-8.06v-4.04m0-8.07v-4.04m0-8.08v-4.03m0-8.08v-2.02l.08-.94.14-.6" stroke="#1071e5" stroke-width="2" fill="none"/><path d="M2171-1049.15h154.33v154.34H2171v-154.35z" stroke="#fff" stroke-opacity="0" stroke-width="2" fill="#3b48cc"/><path d="M2259.32-949.86l2.86-2.94-5.9-5.8 6.6-4.93-2.48-3.3-8.52 6.38c-.1.06-.16.13-.25.22-.8.8-.76 2.1.05 2.9zM2282.22-956.87l-6.6 4.95 2.48 3.3 8.52-6.38c.5-.38.78-.9.83-1.53.04-.62-.18-1.16-.63-1.6l-7.63-7.4-2.87 2.93z" stroke="#fff" stroke-opacity="0" stroke-width="2" fill="#fff"/><path d="M2261.87-945.03l10.87-24.7 3.76 1.66-10.87 24.7-3.76-1.66z" stroke="#fff" stroke-opacity="0" stroke-width=".81" fill="#fff"/><path d="M2301.43-1006.45l-5.73-4.84-9.18-7.5-2.38-2.06c-.43-.4-.86-.5-1.3-.5h-76.36c0-1.14-.87-2.07-2.05-2.07h-8.2c-1.1 0-2.07.93-2.07 2.06v20.58c0 1.14.98 2.06 2.06 2.06h8.2v76.14c0 1.14.98 2.06 2.06 2.06h22.68c1.08 0 2.05-.92 2.05-2.06v-80.25h37.07v15.12l-23.12 9.57h-1.62c-1.2 0-2.05.93-2.05 2.06v37.04c0 1.13.86 2.06 2.05 2.06H2297c1.2 0 2.05-.93 2.05-2.06v-37.04c0-1.13-.86-2.06-2.05-2.06h-1.62l-23-9.57v-15.12h27.75c.87 0 1.62-.52 1.95-1.34.32-.8 0-1.74-.65-2.25zm-19.34-10.7l-10.6 9.57-12.74-9.68h23.33zm-52.94 10.3h-16.42l10.16-7.73 10.04 7.6zm-19.55 42.07l17.5-15.54v31.08zm16.43 20.06l-17.4 15.54v-31.07zm-17.4-24.7v-30.96l17.4 15.53zm17.6-47.84h25.72l-12.85 9.68zm29.18 2.58l10.16 7.7h-20.4zm-36.07-2.58l-12.85 9.78v-9.78zm-16.96 14.4h-4.1v-16.45h4.1v16.45zm7.24 78.2l17.5-15.43v15.45zm17.5-64.82l-15.22-13.37h15.23zm67.85 48.26h-49.37v-32.92h49.37zm-39.1-37.04l14.47-5.97 14.36 5.97zm21.06-28.8l8.32-7.52 9.3 7.6z" stroke="#fff" stroke-opacity="0" stroke-width="2" fill="#fff"/><path d="M2169.8-1524.17h154.34v154.34H2169.8v-154.34z" stroke="#fff" stroke-opacity="0" stroke-width="2" fill="#d6242d"/><path d="M2270.3-1420.72l2.9-2.92 24.6 24.6-2.9 2.92-24.6-24.6zM2196.12-1494.93l2.9-2.9 27.28 27.3-2.9 2.9-27.28-27.3zM2202.3-1405.13l14.4-14.4 2.9 2.9-14.4 14.4-2.9-2.9zM2274.32-1477.17l14.4-14.4 2.92 2.9-14.4 14.4-2.92-2.9z" stroke="#fff" stroke-opacity="0" stroke-width="1.41" fill="#fff"/><path d="M2294.22-1449.03c-.4-9.63-3.2-17.78-8.88-25.6l-3.33 2.45c5.14 7.1 7.7 14.4 8.1 23.15H2286v4.1h4.13c-.35 8.8-2.9 16.18-8.1 23.33l3.34 2.38c5.7-7.87 8.52-16 8.88-25.7h4.1v-4.16zM2221.7-1481.95c7.1-5.15 14.43-7.7 23.2-8.08v3.97h4.12v-3.97c8.78.38 16.12 2.93 23.23 8.08l2.5-3.34c-7.9-5.67-16-8.48-25.73-8.85v-4.26h-4.1v4.26c-9.73.36-17.84 3.17-25.73 8.85zM2272.25-1411.86c-7.1 5.14-14.45 7.7-23.23 8.1v-4.13h-4.1v4.14c-8.8-.4-16.12-2.95-23.23-8.1l-2.5 3.33c7.88 5.7 16 8.5 25.7 8.88v4.1h4.12v-4.1c9.73-.37 17.84-3.18 25.73-8.88zM2208.6-1419.22l3.32-2.44c-5.17-7.1-7.73-14.47-8.1-23.3h4.14v-4.1h-4.13c.4-8.75 2.97-16.07 8.1-23.16l-3.34-2.44c-5.67 7.82-8.48 15.97-8.88 25.6h-4.12v4.1h4.12c.36 9.72 3.18 17.87 8.87 25.74zM2257.05-1474.28c-2.96-2.44-6.26-3.6-10.08-3.55-7.94 0-14.4 5.6-14.4 12.56v10.05h-4.12c-1.15 0-2.06.95-2.06 2.06v28.84c0 .55.2 1.05.6 1.44.38.4.87.6 1.45.6h37.04c1.14 0 2.05-.93 2.05-2.04v-28.84c0-.56-.2-1-.58-1.4-.4-.43-.9-.66-1.48-.66h-4.13v-10.05c-.04-3.62-1.52-6.73-4.32-9zm-20.37 9c0-4.66 4.65-8.44 10.3-8.44 2.8-.06 5.22.78 7.4 2.56 1.85 1.5 2.84 3.5 2.92 5.9v10.04h-20.58zm26.75 20.4h-6.17v4.1h6.17v4.12h-6.17v4.1h6.17v6.18h-32.92v-24.72h32.93z" stroke="#fff" stroke-opacity="0" stroke-width="2" fill="#fff"/><path d="M2244.9-1436.18v5.68h4.13v-5.68c1.74-.63 2.97-1.86 3.6-3.62 1.14-3.13-.47-6.58-3.6-7.7-3.14-1.14-6.6.47-7.73 3.6-1.14 3.13.48 6.6 3.6 7.72zm2.07-7.86c1.23 0 2.23.98 2.24 2.2.02 1.23-.97 2.23-2.2 2.25-1.2 0-2.23-.96-2.24-2.2v-.07c0-1.2 1-2.17 2.2-2.17z" stroke="#fff" stroke-opacity="0" stroke-width="2" fill="#fff"/><path d="M2024.47-1200.1H2085v60.52h-60.53v-60.52z" stroke="#fff" stroke-opacity="0" stroke-width="2" fill="#3b48cc"/><path d="M2070.47-1190H2039h-.04c-2.46 0-4.4 2-4.4 4.42v8.92c0 2.46 2.02 4.4 4.44 4.4h1.2v21.8c0 .43.37.8.82.8h27.43c.45 0 .8-.37.8-.8v-21.8h1.26c2.47 0 4.4-2.02 4.4-4.44v-8.88-.04c0-2.46-2-4.4-4.43-4.4zm-2.87 38.72h-25.82v-20.98h25.82zm2.87-22.6H2039c-1.4 0-2.6-1-2.75-2.4l13.72-.02v-1.6h-13.72v-7.67c-.04-1.54 1.2-2.8 2.75-2.83h31.47c1.53 0 2.82 1.2 2.82 2.74v7.75h-15.34v1.6h15.33c-.2 1.42-1.42 2.47-2.83 2.43z" stroke="#fff" stroke-opacity="0" stroke-width="2" fill="#fff"/><path d="M2044.7-1161.9l4.62 4 1.06-1.23-3.92-3.38 3.95-3.5-1.06-1.2-4.64 4.1c-.18.15-.27.37-.27.6 0 .25.1.45.28.6zM2060.18-1157.88l4.65-4.03c.18-.18.27-.38.27-.62 0-.25-.1-.45-.27-.62l-4.65-4.03-1.06 1.22 3.95 3.43-3.95 3.45z" stroke="#fff" stroke-opacity="0" stroke-width="2" fill="#fff"/><path d="M2051.6-1155.67l5.55-13.54 1.5.6-5.56 13.53-1.5-.6z" stroke="#fff" stroke-opacity="0" stroke-width=".76" fill="#fff"/><path d="M2052.3-1177.9h3.24v1.6h-3.23v-1.6z" stroke="#fff" stroke-opacity="0" stroke-width="2" fill="#fff"/><path d="M2580.07-1067.54h-2v-182.03h2zm0-222.03h-2v-60.64h2z" stroke="#000" stroke-width=".05"/><path d="M2579.07-1052.27l-4.64-14.27h9.27z"/><path d="M2579.07-1049.03l-6.02-18.5h12.03zm-3.26-16.5l3.27 10.02 3.26-10.04z" stroke="#000" stroke-width=".05"/><path d="M2583.7-1351.2h-9.27l4.64-14.27z"/><path d="M2585.08-1350.2h-12.03l6.02-18.5zm-9.27-2h6.53l-3.26-10.04z" stroke="#000" stroke-width=".05"/><use xlink:href="#a" transform="matrix(1,0,0,1,2535.6407449265553,-1289.570693880099) translate(0 26.666666666666664)"/><path d="M2176.46-1612h143.4v78.32h-143.4z" fill="none"/><use xlink:href="#b" transform="matrix(1,0,0,1,2176.4604501408567,-1611.989071071282) translate(15.564814814814824 26.666666666666664)"/><use xlink:href="#c" transform="matrix(1,0,0,1,2176.4604501408567,-1611.989071071282) translate(6.351851851851862 66.66666666666666)"/><path d="M2161.97-888.8a6 6 0 0 1 6-6h158a6 6 0 0 1 6 6v41.7a6 6 0 0 1-6 6h-158a6 6 0 0 1-6-6z" stroke="#000" stroke-opacity="0" stroke-width="3" fill="#fff"/><use xlink:href="#d" transform="matrix(1,0,0,1,2166.9678900147387,-889.8140887596232) translate(3.2870370370370665 29.416666666666657)"/><path d="M2501.9-1049.03h154.34v154.33H2501.9v-154.33z" stroke="#fff" stroke-opacity="0" stroke-width="2" fill="#3b48cc"/><path d="M2590.22-949.74l2.86-2.94-5.88-5.8 6.58-4.93-2.47-3.32-8.5 6.38c-.1.07-.18.14-.26.22-.8.82-.77 2.1.05 2.9zM2613.12-956.75l-6.58 4.94 2.47 3.3 8.53-6.4c.5-.36.78-.88.83-1.5.03-.63-.18-1.18-.63-1.62l-7.63-7.4-2.86 2.94z" stroke="#fff" stroke-opacity="0" stroke-width="2" fill="#fff"/><path d="M2592.77-944.92l10.88-24.7 3.76 1.67-10.87 24.7-3.76-1.67z" stroke="#fff" stroke-opacity="0" stroke-width=".81" fill="#fff"/><path d="M2632.34-1006.33l-5.73-4.84-9.17-7.5-2.38-2.07c-.43-.4-.86-.5-1.3-.5h-76.37c0-1.14-.86-2.07-2.05-2.07h-8.2c-1.1 0-2.06.9-2.06 2.05v20.58c0 1.13.97 2.05 2.05 2.05h8.2v76.14c0 1.13.98 2.06 2.06 2.06h22.7c1.07 0 2.04-.93 2.04-2.06v-80.25h37.05v15.12l-23.12 9.56h-1.62c-1.18 0-2.05.93-2.05 2.06v37.04c0 1.13.87 2.06 2.05 2.06h53.48c1.2 0 2.06-.93 2.06-2.06v-37.04c0-1.13-.87-2.06-2.05-2.06h-1.62l-23-9.57v-15.13h27.76c.86 0 1.62-.52 1.94-1.34.33-.82 0-1.75-.64-2.26zm-19.34-10.7l-10.6 9.56-12.73-9.67H2613zm-52.93 10.28h-16.42l10.15-7.7 10.05 7.6zm-19.55 42.1l17.5-15.55v31.07zm16.4 20.05l-17.38 15.54v-31.08zm-17.38-24.7v-30.96l17.4 15.53zm17.6-47.84h25.72l-12.85 9.67zm29.18 2.57l10.15 7.72h-20.4zm-36.08-2.57l-12.86 9.78v-9.78zm-16.96 14.4h-4.1v-16.46h4.1v16.47zm7.24 78.2l17.5-15.43v15.44zm17.5-64.82l-15.24-13.37H2558zm67.83 48.26h-49.36v-32.93h49.35zm-39.1-37.04l14.47-5.97 14.37 5.96zm21.06-28.8l8.33-7.52 9.3 7.6z" stroke="#fff" stroke-opacity="0" stroke-width="2" fill="#fff"/><path d="M2580-1525.32c-42.6 0-77.18 35.1-77.18 78.32 0 43.38 34.57 78.3 77.17 78.3 42.74 0 77.16-35.08 77.16-78.3 0-43.4-34.42-78.32-77.17-78.32zm20.36 146.3v-13.17c0-5.3-2.93-9.85-6.94-12.83h.77c7.4-.78 13.73-3.13 13.73-3.13s9.4-2.98 14.66-9.08c5.4-6.74 6.93-16.14 6.93-16.14s1.55-10.33 0-18.63c-1.54-7.7-7.7-13.48-7.7-13.48s2-5.5 1.7-10.8c0-5.34-2.48-10.66-2.48-10.66s-4.48-.47-9.42 1.56c-5.7 2.5-12.2 7.05-12.2 7.05s-4.47-1.56-9.7-2.03c-4.8-.94-10.5-.94-10.5-.94s-5.72 0-10.66.94c-5.25.78-9.72 2.03-9.72 2.03s-6.48-4.54-12.2-7.05c-4.78-2.03-9.26-1.56-9.26-1.56s-2.47 5.32-2.47 10.65c0 5.5 1.54 10.82 1.54 10.82s-5.56 5.32-7.56 13.46c-2.15 8.3 0 18.64 0 18.64s1.1 9.4 6.8 16.14c5.4 6.1 14.66 9.08 14.66 9.08s6.48 2.35 13.74 3.13h1.23c-2.78 2.98-5.7 7.52-5.7 12.84v13.17c-28.72-8.6-49.55-35.87-49.55-67.97 0-39.16 31.33-70.8 69.9-70.8 38.6 0 70.4 31.64 70.4 70.8 0 32.1-21.15 59.36-50.02 67.97z" stroke="#000" stroke-opacity="0"/><path d="M2248.16-1067.65v-283.68" stroke="#000" stroke-width="2" fill="none"/><path d="M2248.16-1052.4l-4.63-14.25h9.27zM2248.16-1366.6l4.64 14.27h-9.28z" stroke="#000" stroke-width="2"/><path d="M2109.76-1180.7a6 6 0 0 1 6-6h158a6 6 0 0 1 6 6v41.73a6 6 0 0 1-6 6h-158a6 6 0 0 1-6-6z" stroke="#000" stroke-opacity="0" stroke-width="3" fill="#fff"/><use xlink:href="#e" transform="matrix(1,0,0,1,2114.762455157889,-1181.6884467859043) translate(-18.888888888888843 28.666666666666664)"/><path d="M2508.3-1612h143.4v78.32h-143.4z" fill="none"/><use xlink:href="#f" transform="matrix(1,0,0,1,2508.2925969895605,-1611.989071071282) translate(26.72222222222223 26.666666666666664)"/><use xlink:href="#g" transform="matrix(1,0,0,1,2508.2925969895605,-1611.989071071282) translate(-7.490740740740719 66.66666666666666)"/><path d="M2494.07-888.8a6 6 0 0 1 6-6h158a6 6 0 0 1 6 6v41.7a6 6 0 0 1-6 6h-158a6 6 0 0 1-6-6z" stroke="#000" stroke-opacity="0" stroke-width="3" fill="#fff"/><use xlink:href="#d" transform="matrix(1,0,0,1,2499.0666708524814,-889.8140887596234) translate(3.2870370370370665 29.416666666666657)"/><path d="M2834-1049.03h154.34v154.33H2834v-154.33z" stroke="#fff" stroke-opacity="0" stroke-width="2" fill="#3b48cc"/><path d="M2922.32-949.74l2.86-2.94-5.88-5.8 6.58-4.93-2.47-3.32-8.5 6.38c-.1.07-.18.14-.26.22-.8.82-.77 2.1.05 2.9zM2945.22-956.75l-6.58 4.94 2.47 3.3 8.53-6.4c.5-.36.78-.88.82-1.5.04-.63-.17-1.18-.62-1.62l-7.63-7.4-2.86 2.94z" stroke="#fff" stroke-opacity="0" stroke-width="2" fill="#fff"/><path d="M2924.87-944.92l10.87-24.7 3.77 1.67-10.87 24.7-3.76-1.67z" stroke="#fff" stroke-opacity="0" stroke-width=".81" fill="#fff"/><path d="M2964.43-1006.33l-5.72-4.84-9.17-7.5-2.38-2.07c-.43-.4-.86-.5-1.3-.5h-76.37c0-1.14-.86-2.07-2.05-2.07h-8.2c-1.1 0-2.06.9-2.06 2.05v20.58c0 1.13.97 2.05 2.05 2.05h8.2v76.14c0 1.13.98 2.06 2.06 2.06h22.7c1.07 0 2.04-.93 2.04-2.06v-80.25h37.05v15.12l-23.12 9.56h-1.62c-1.2 0-2.05.93-2.05 2.06v37.04c0 1.13.86 2.06 2.05 2.06H2960c1.2 0 2.06-.93 2.06-2.06v-37.04c0-1.13-.87-2.06-2.05-2.06h-1.62l-23-9.57v-15.13h27.76c.86 0 1.62-.52 1.94-1.34.33-.82 0-1.75-.65-2.26zm-19.33-10.7l-10.6 9.56-12.74-9.67h23.34zm-52.93 10.28h-16.42l10.15-7.7 10.05 7.6zm-19.56 42.1l17.5-15.55v31.07zm16.43 20.05l-17.4 15.54v-31.08zm-17.4-24.7v-30.96l17.4 15.53zm17.62-47.84h25.7l-12.84 9.67zm29.17 2.57l10.15 7.72h-20.42zm-36.08-2.57l-12.86 9.78v-9.78zm-16.96 14.4h-4.1v-16.46h4.1v16.47zm7.23 78.2l17.5-15.43v15.44zm17.5-64.82l-15.22-13.37h15.23zm67.85 48.26h-49.36v-32.93h49.35zm-39.1-37.04l14.47-5.97 14.37 5.96zm21.06-28.8l8.33-7.52 9.3 7.6z" stroke="#fff" stroke-opacity="0" stroke-width="2" fill="#fff"/><path d="M2811.1-1518.17a6 6 0 0 1 6-6h188.12a6 6 0 0 1 6 6v145a6 6 0 0 1-6 6h-188.1a6 6 0 0 1-6-6z" stroke="#fc9432" stroke-width="3" fill="#fff"/><use xlink:href="#h" transform="matrix(1,0,0,1,2816.111303907641,-1519.1727189599442) translate(35.40740740740743 40.54166666666666)"/><use xlink:href="#i" transform="matrix(1,0,0,1,2816.111303907641,-1519.1727189599442) translate(26.10185185185189 80.54166666666664)"/><use xlink:href="#j" transform="matrix(1,0,0,1,2816.111303907641,-1519.1727189599442) translate(29.851851851851876 120.54166666666663)"/><path d="M2911.16-1067.54v-279.62" stroke="#000" stroke-width="2" fill="none"/><path d="M2911.16-1052.27l-4.63-14.27h9.27zM2911.16-1362.43l4.64 14.27h-9.27z" stroke="#000" stroke-width="2"/><path d="M1696.2-894.8h308.7v78.3h-308.7z" fill="none"/><use xlink:href="#k" transform="matrix(1,0,0,1,1696.2144343634704,-894.8140887596234) translate(102.74074074074076 26.666666666666664)"/><use xlink:href="#l" transform="matrix(1,0,0,1,1696.2144343634704,-894.8140887596234) translate(75.00925925925928 66.66666666666666)"/><path d="M1904.87-972.65l-49.24-52.06c-2.82-2.85-7.22-2.85-9.8 0l-10.83 11.1 12.85 13.5c.8-.36 1.9-.6 3.04-.6 4.72 0 8.56 4.03 8.56 9 0 1.2-.23 2.37-.57 3.32l12.5 13.13c.8-.35 2.03-.6 3.04-.6 4.74 0 8.68 4.03 8.68 9s-3.94 9.12-8.67 9.12c-4.74 0-8.57-4.15-8.57-9.12 0-1.18.23-2.36.56-3.2l-11.72-12.3v32.2c2.82 1.4 4.74 4.6 4.74 7.92 0 4.97-3.84 9-8.57 9-4.74 0-8.7-4.03-8.7-9 0-3.9 2.27-7.1 5.65-8.52v-32.78c-3.38-1.07-5.64-4.62-5.64-8.4 0-1.2.35-2.37.58-3.2l-12.74-13.5-33.7 35.98c-2.8 2.84-2.8 7.58 0 10.18l49.25 51.72c2.8 2.95 7.2 2.95 9.7 0l49.24-51.72c3.15-2.84 3.15-7.57.33-10.18z" stroke="#000" stroke-opacity="0" fill="#0078d7"/><path d="M1954.5-966.8h-46.6v-2h46.6zm198-4.18h-53.92v-2h53.9z" stroke="#000" stroke-width=".05"/><path d="M2167.76-971.98l-14.27 4.63v-9.27z"/><path d="M2171-971.98l-18.5 6v-12zm-16.5 3.25l10.02-3.25-10.03-3.26z" stroke="#000" stroke-width=".05"/><path d="M1907.93-966.8h-1.1l.1-.64-.1-1.35h1.1z"/><path d="M1907.96-966.77h-1.17l.1-.67-.1-1.38h1.16zm-1.1-2l.1 1.33-.1.62h1.05v-1.95z" stroke="#000" stroke-width=".05"/><use xlink:href="#m" transform="matrix(1,0,0,1,1954.502893061559,-987.7938085638337) translate(0 26.66666666666667)"/><path d="M2326.33-971.98h157.07" stroke="#000" stroke-width="2" fill="none"/><path d="M2326.36-970.98h-1.03v-2h1.03z" stroke="#000" stroke-width=".05"/><path d="M2498.66-971.98l-14.26 4.63v-9.27z" stroke="#000" stroke-width="2"/><path d="M2657.24-971.87h158.25" stroke="#000" stroke-width="2" fill="none"/><path d="M2657.26-970.87h-1.02v-2h1.02z" stroke="#000" stroke-width=".05"/><path d="M2830.76-971.87l-14.27 4.64v-9.27z" stroke="#000" stroke-width="2"/><path d="M2911.16-893.7v210.2a6 6 0 0 1-6 6H1855.34a6 6 0 0 1-6-6V-798" stroke="#008a0e" stroke-width="2" fill="none"/><path d="M2912.16-893.67h-2v-1.03h2z" stroke="#008a0e" stroke-width=".05" fill="#008a0e"/><path d="M1849.33-813.27l4.64 14.27h-9.27z" stroke="#008a0e" stroke-width="2" fill="#008a0e"/><use xlink:href="#n" transform="matrix(1,0,0,1,2096.901234567901,-718.8333333333333) translate(0 24.888888888888893)"/><use xlink:href="#o" transform="matrix(1,0,0,1,2096.901234567901,-718.8333333333333) translate(155.46913580246914 24.888888888888893)"/><use xlink:href="#p" transform="matrix(1,0,0,1,2096.901234567901,-718.8333333333333) translate(182.25925925925927 24.888888888888893)"/><path d="M2826.16-888.8a6 6 0 0 1 6-6h158a6 6 0 0 1 6 6v41.7a6 6 0 0 1-6 6h-158a6 6 0 0 1-6-6z" stroke="#000" stroke-opacity="0" stroke-width="3" fill="#fff"/><use xlink:href="#d" transform="matrix(1,0,0,1,2831.165451690224,-889.8140887596234) translate(3.2870370370370665 29.416666666666657)"/><path d="M2989.34-971.87h342.7" stroke="#e81313" stroke-width="2" fill="none"/><path d="M2989.36-970.87h-1.03v-2h1.03z" stroke="#e81313" stroke-width=".05" fill="#e81313"/><path d="M3347.3-971.87l-14.27 4.64v-9.27z" stroke="#e81313" stroke-width="2" fill="#e81313"/><use xlink:href="#q" transform="matrix(1,0,0,1,3010.5960472140314,-1013.1983932280979) translate(0 24.888888888888886)"/><use xlink:href="#r" transform="matrix(1,0,0,1,3010.5960472140314,-1013.1983932280979) translate(155.4691358024691 24.888888888888886)"/><use xlink:href="#s" transform="matrix(1,0,0,1,3010.5960472140314,-1013.1983932280979) translate(200.4074074074074 24.888888888888886)"/><path d="M3412.53-972c0 16.45-13.43 29.76-30 29.76s-30-13.3-30-29.75c0-16.42 13.43-29.74 30-29.74s30 13.32 30 29.75zm-51.2-21.02l42.42 42.07m-42.43 0l42.43-42.07" stroke="#e81313" stroke-width="4" fill-opacity="0"/><path d="M3031.33-962.3h269.74v67.6h-269.74z" fill-opacity="0"/><use xlink:href="#t" transform="matrix(1,0,0,1,3036.333333333333,-957.2957379140497) translate(6.049382716049408 32.27777777777778)"/><path d="M2580-798.66l37.98 5.17v3.06c0 4.53-17.02 8.2-38 8.2-20.97 0-38-3.67-38-8.2v-3.32z" fill="#8c3123"/><path d="M2580-776.64c15.86 0 29.45-2.12 35.1-5.1l1.9-2.87.75-2.64v3.26l-12.46 48.6c0 3.05-11.33 5.46-25.3 5.46-13.96 0-25.3-2.4-25.3-5.45l-12.44-48.6v-3.22l2.87 5.57c5.73 2.93 19.17 5 34.87 5z" fill="#8c3123"/><path d="M2580-801.92c20.96 0 38 3.67 38 8.18 0 4.5-17.04 8.14-38 8.14-20.98 0-38-3.6-38-8.14 0-4.54 17.02-8.18 38-8.18z" fill="#e05243"/><path d="M2580-779.95c19.55 0 35.63-3.13 37.74-7.24l-12.46 48.6c0 3.04-11.32 5.47-25.3 5.47-13.96 0-25.3-2.43-25.3-5.46l-12.44-48.6c2.1 4.12 18.2 7.25 37.75 7.25z" fill="#e05243"/><g><use xlink:href="#u" transform="matrix(1,0,0,1,2541.992492595141,-729.9173831118401) translate(-2.061728395061728 17.77777777777778)"/></g><path d="M2579.07-840.1V-820.38" stroke="#000" stroke-width="2" fill="none"/><path d="M2580.07-840.07h-2v-1.03h2z" stroke="#000" stroke-width=".05"/><path d="M2579.07-805.1l-4.64-14.27h9.27z" stroke="#000" stroke-width="2"/><defs><path fill="#1071e5" d="M67-101c-8 29-7 73 27 71 23-2 32-16 39-37l48 9C170-19 141 4 91 4 36 4 7-28 12-86c6-75 61-124 140-103 26 7 40 29 43 59l-50 4c-1-20-9-34-29-34-35 0-41 29-49 59" id="v"/><path fill="#1071e5" d="M6 0l51-261h49L55 0H6" id="w"/><path fill="#1071e5" d="M124-194c51 0 84 22 84 74C207-44 167 4 94 4 43 4 11-23 11-74c0-74 41-120 113-120zM99-30c46 0 58-42 58-86 0-27-11-44-37-44-44 0-55 40-57 84-1 27 10 45 36 46" id="x"/><path fill="#1071e5" d="M151-194c95 0 34 128 28 194h-49l25-134c0-29-45-25-59-9C67-111 69-48 56 0H6l36-190h47l-4 32c15-20 33-36 66-36" id="y"/><path fill="#1071e5" d="M114-194c63-2 87 48 72 110H63c-3 28 1 55 31 54 21-1 32-13 37-29l44 13C160-14 137 4 91 4 41 4 11-22 11-73c0-71 33-119 103-121zm30 77c14-47-50-61-67-22-3 6-6 13-8 22h75" id="z"/><g id="a"><use transform="matrix(0.09259259259259257,0,0,0.09259259259259257,0,0)" xlink:href="#v"/><use transform="matrix(0.09259259259259257,0,0,0.09259259259259257,18.518518518518515,0)" xlink:href="#w"/><use transform="matrix(0.09259259259259257,0,0,0.09259259259259257,27.77777777777777,0)" xlink:href="#x"/><use transform="matrix(0.09259259259259257,0,0,0.09259259259259257,48.05555555555554,0)" xlink:href="#y"/><use transform="matrix(0.09259259259259257,0,0,0.09259259259259257,68.33333333333331,0)" xlink:href="#z"/></g><path d="M185-189c-5-48-123-54-124 2 14 75 158 14 163 119 3 78-121 87-175 55-17-10-28-26-33-46l33-7c5 56 141 63 141-1 0-78-155-14-162-118-5-82 145-84 179-34 5 7 8 16 11 25" id="A"/><path d="M100-194c63 0 86 42 84 106H49c0 40 14 67 53 68 26 1 43-12 49-29l28 8c-11 28-37 45-77 45C44 4 14-33 15-96c1-61 26-98 85-98zm52 81c6-60-76-77-97-28-3 7-6 17-6 28h103" id="B"/><path d="M96-169c-40 0-48 33-48 73s9 75 48 75c24 0 41-14 43-38l32 2c-6 37-31 61-74 61-59 0-76-41-82-99-10-93 101-131 147-64 4 7 5 14 7 22l-32 3c-4-21-16-35-41-35" id="C"/><path d="M114-163C36-179 61-72 57 0H25l-1-190h30c1 12-1 29 2 39 6-27 23-49 58-41v29" id="D"/><path d="M59-47c-2 24 18 29 38 22v24C64 9 27 4 27-40v-127H5v-23h24l9-43h21v43h35v23H59v120" id="E"/><path d="M135-143c-3-34-86-38-87 0 15 53 115 12 119 90S17 21 10-45l28-5c4 36 97 45 98 0-10-56-113-15-118-90-4-57 82-63 122-42 12 7 21 19 24 35" id="F"/><g id="b"><use transform="matrix(0.09259259259259257,0,0,0.09259259259259257,0,0)" xlink:href="#A"/><use transform="matrix(0.09259259259259257,0,0,0.09259259259259257,22.222222222222218,0)" xlink:href="#B"/><use transform="matrix(0.09259259259259257,0,0,0.09259259259259257,40.74074074074073,0)" xlink:href="#C"/><use transform="matrix(0.09259259259259257,0,0,0.09259259259259257,57.4074074074074,0)" xlink:href="#D"/><use transform="matrix(0.09259259259259257,0,0,0.09259259259259257,68.42592592592591,0)" xlink:href="#B"/><use transform="matrix(0.09259259259259257,0,0,0.09259259259259257,86.94444444444443,0)" xlink:href="#E"/><use transform="matrix(0.09259259259259257,0,0,0.09259259259259257,96.20370370370368,0)" xlink:href="#F"/></g><path d="M240 0l2-218c-23 76-54 145-80 218h-23L58-218 59 0H30v-248h44l77 211c21-75 51-140 76-211h43V0h-30" id="G"/><path d="M141-36C126-15 110 5 73 4 37 3 15-17 15-53c-1-64 63-63 125-63 3-35-9-54-41-54-24 1-41 7-42 31l-33-3c5-37 33-52 76-52 45 0 72 20 72 64v82c-1 20 7 32 28 27v20c-31 9-61-2-59-35zM48-53c0 20 12 33 32 33 41-3 63-29 60-74-43 2-92-5-92 41" id="H"/><path d="M117-194c89-4 53 116 60 194h-32v-121c0-31-8-49-39-48C34-167 62-67 57 0H25l-1-190h30c1 10-1 24 2 32 11-22 29-35 61-36" id="I"/><path d="M177-190C167-65 218 103 67 71c-23-6-38-20-44-43l32-5c15 47 100 32 89-28v-30C133-14 115 1 83 1 29 1 15-40 15-95c0-56 16-97 71-98 29-1 48 16 59 35 1-10 0-23 2-32h30zM94-22c36 0 50-32 50-73 0-42-14-75-50-75-39 0-46 34-46 75s6 73 46 73" id="J"/><g id="c"><use transform="matrix(0.09259259259259257,0,0,0.09259259259259257,0,0)" xlink:href="#G"/><use transform="matrix(0.09259259259259257,0,0,0.09259259259259257,27.68518518518518,0)" xlink:href="#H"/><use transform="matrix(0.09259259259259257,0,0,0.09259259259259257,46.203703703703695,0)" xlink:href="#I"/><use transform="matrix(0.09259259259259257,0,0,0.09259259259259257,64.72222222222221,0)" xlink:href="#H"/><use transform="matrix(0.09259259259259257,0,0,0.09259259259259257,83.24074074074073,0)" xlink:href="#J"/><use transform="matrix(0.09259259259259257,0,0,0.09259259259259257,101.75925925925925,0)" xlink:href="#B"/><use transform="matrix(0.09259259259259257,0,0,0.09259259259259257,120.27777777777777,0)" xlink:href="#D"/></g><path fill="#333" d="M212-179c-10-28-35-45-73-45-59 0-87 40-87 99 0 60 29 101 89 101 43 0 62-24 78-52l27 14C228-24 195 4 139 4 59 4 22-46 18-125c-6-104 99-153 187-111 19 9 31 26 39 46" id="K"/><path fill="#333" d="M100-194c62-1 85 37 85 99 1 63-27 99-86 99S16-35 15-95c0-66 28-99 85-99zM99-20c44 1 53-31 53-75 0-43-8-75-51-75s-53 32-53 75 10 74 51 75" id="L"/><path fill="#333" d="M85-194c31 0 48 13 60 33l-1-100h32l1 261h-30c-2-10 0-23-3-31C134-8 116 4 85 4 32 4 16-35 15-94c0-66 23-100 70-100zm9 24c-40 0-46 34-46 75 0 40 6 74 45 74 42 0 51-32 51-76 0-42-9-74-50-73" id="M"/><path fill="#333" d="M100-194c63 0 86 42 84 106H49c0 40 14 67 53 68 26 1 43-12 49-29l28 8c-11 28-37 45-77 45C44 4 14-33 15-96c1-61 26-98 85-98zm52 81c6-60-76-77-97-28-3 7-6 17-6 28h103" id="N"/><path fill="#333" d="M160-131c35 5 61 23 61 61C221 17 115-2 30 0v-248c76 3 177-17 177 60 0 33-19 50-47 57zm-97-11c50-1 110 9 110-42 0-47-63-36-110-37v79zm0 115c55-2 124 14 124-45 0-56-70-42-124-44v89" id="O"/><path fill="#333" d="M84 4C-5 8 30-112 23-190h32v120c0 31 7 50 39 49 72-2 45-101 50-169h31l1 190h-30c-1-10 1-25-2-33-11 22-28 36-60 37" id="P"/><path fill="#333" d="M24-231v-30h32v30H24zM24 0v-190h32V0H24" id="Q"/><path fill="#333" d="M24 0v-261h32V0H24" id="R"/><g id="d"><use transform="matrix(0.09259259259259256,0,0,0.09259259259259256,0,0)" xlink:href="#K"/><use transform="matrix(0.09259259259259256,0,0,0.09259259259259256,23.981481481481474,0)" xlink:href="#L"/><use transform="matrix(0.09259259259259256,0,0,0.09259259259259256,42.499999999999986,0)" xlink:href="#M"/><use transform="matrix(0.09259259259259256,0,0,0.09259259259259256,61.0185185185185,0)" xlink:href="#N"/><use transform="matrix(0.09259259259259256,0,0,0.09259259259259256,79.53703703703701,0)" xlink:href="#O"/><use transform="matrix(0.09259259259259256,0,0,0.09259259259259256,101.75925925925922,0)" xlink:href="#P"/><use transform="matrix(0.09259259259259256,0,0,0.09259259259259256,120.27777777777773,0)" xlink:href="#Q"/><use transform="matrix(0.09259259259259256,0,0,0.09259259259259256,127.59259259259255,0)" xlink:href="#R"/><use transform="matrix(0.09259259259259256,0,0,0.09259259259259256,134.90740740740736,0)" xlink:href="#M"/></g><path fill="#333" d="M30-248c87 1 191-15 191 75 0 78-77 80-158 76V0H30v-248zm33 125c57 0 124 11 124-50 0-59-68-47-124-48v98" id="S"/><path fill="#333" d="M115-194c55 1 70 41 70 98S169 2 115 4C84 4 66-9 55-30l1 105H24l-1-265h31l2 30c10-21 28-34 59-34zm-8 174c40 0 45-34 45-75s-6-73-45-74c-42 0-51 32-51 76 0 43 10 73 51 73" id="T"/><path fill="#333" d="M117-194c89-4 53 116 60 194h-32v-121c0-31-8-49-39-48C34-167 62-67 57 0H25l-1-190h30c1 10-1 24 2 32 11-22 29-35 61-36" id="U"/><g id="e"><use transform="matrix(0.09259259259259256,0,0,0.09259259259259256,0,0)" xlink:href="#K"/><use transform="matrix(0.09259259259259256,0,0,0.09259259259259256,23.981481481481474,0)" xlink:href="#L"/><use transform="matrix(0.09259259259259256,0,0,0.09259259259259256,42.499999999999986,0)" xlink:href="#M"/><use transform="matrix(0.09259259259259256,0,0,0.09259259259259256,61.0185185185185,0)" xlink:href="#N"/><use transform="matrix(0.09259259259259256,0,0,0.09259259259259256,79.53703703703701,0)" xlink:href="#S"/><use transform="matrix(0.09259259259259256,0,0,0.09259259259259256,101.75925925925922,0)" xlink:href="#Q"/><use transform="matrix(0.09259259259259256,0,0,0.09259259259259256,109.07407407407403,0)" xlink:href="#T"/><use transform="matrix(0.09259259259259256,0,0,0.09259259259259256,127.59259259259255,0)" xlink:href="#N"/><use transform="matrix(0.09259259259259256,0,0,0.09259259259259256,146.11111111111106,0)" xlink:href="#R"/><use transform="matrix(0.09259259259259256,0,0,0.09259259259259256,153.42592592592587,0)" xlink:href="#Q"/><use transform="matrix(0.09259259259259256,0,0,0.09259259259259256,160.74074074074068,0)" xlink:href="#U"/><use transform="matrix(0.09259259259259256,0,0,0.09259259259259256,179.25925925925918,0)" xlink:href="#N"/></g><path d="M30-248c87 1 191-15 191 75 0 78-77 80-158 76V0H30v-248zm33 125c57 0 124 11 124-50 0-59-68-47-124-48v98" id="V"/><path d="M84 4C-5 8 30-112 23-190h32v120c0 31 7 50 39 49 72-2 45-101 50-169h31l1 190h-30c-1-10 1-25-2-33-11 22-28 36-60 37" id="W"/><path d="M115-194c53 0 69 39 70 98 0 66-23 100-70 100C84 3 66-7 56-30L54 0H23l1-261h32v101c10-23 28-34 59-34zm-8 174c40 0 45-34 45-75 0-40-5-75-45-74-42 0-51 32-51 76 0 43 10 73 51 73" id="X"/><path d="M24 0v-261h32V0H24" id="Y"/><path d="M24-231v-30h32v30H24zM24 0v-190h32V0H24" id="Z"/><g id="f"><use transform="matrix(0.09259259259259257,0,0,0.09259259259259257,0,0)" xlink:href="#V"/><use transform="matrix(0.09259259259259257,0,0,0.09259259259259257,22.222222222222218,0)" xlink:href="#W"/><use transform="matrix(0.09259259259259257,0,0,0.09259259259259257,40.74074074074073,0)" xlink:href="#X"/><use transform="matrix(0.09259259259259257,0,0,0.09259259259259257,59.25925925925926,0)" xlink:href="#Y"/><use transform="matrix(0.09259259259259257,0,0,0.09259259259259257,66.57407407407406,0)" xlink:href="#Z"/><use transform="matrix(0.09259259259259257,0,0,0.09259259259259257,73.88888888888887,0)" xlink:href="#C"/></g><path d="M233-177c-1 41-23 64-60 70L243 0h-38l-65-103H63V0H30v-248c88 3 205-21 203 71zM63-129c60-2 137 13 137-47 0-61-80-42-137-45v92" id="aa"/><path d="M115-194c55 1 70 41 70 98S169 2 115 4C84 4 66-9 55-30l1 105H24l-1-265h31l2 30c10-21 28-34 59-34zm-8 174c40 0 45-34 45-75s-6-73-45-74c-42 0-51 32-51 76 0 43 10 73 51 73" id="ab"/><path d="M100-194c62-1 85 37 85 99 1 63-27 99-86 99S16-35 15-95c0-66 28-99 85-99zM99-20c44 1 53-31 53-75 0-43-8-75-51-75s-53 32-53 75 10 74 51 75" id="ac"/><path d="M179-190L93 31C79 59 56 82 12 73V49c39 6 53-20 64-50L1-190h34L92-34l54-156h33" id="ad"/><g id="g"><use transform="matrix(0.09259259259259257,0,0,0.09259259259259257,0,0)" xlink:href="#aa"/><use transform="matrix(0.09259259259259257,0,0,0.09259259259259257,23.981481481481477,0)" xlink:href="#B"/><use transform="matrix(0.09259259259259257,0,0,0.09259259259259257,42.49999999999999,0)" xlink:href="#ab"/><use transform="matrix(0.09259259259259257,0,0,0.09259259259259257,61.018518518518505,0)" xlink:href="#ac"/><use transform="matrix(0.09259259259259257,0,0,0.09259259259259257,79.53703703703702,0)" xlink:href="#F"/><use transform="matrix(0.09259259259259257,0,0,0.09259259259259257,96.20370370370371,0)" xlink:href="#Z"/><use transform="matrix(0.09259259259259257,0,0,0.09259259259259257,103.51851851851849,0)" xlink:href="#E"/><use transform="matrix(0.09259259259259257,0,0,0.09259259259259257,112.77777777777776,0)" xlink:href="#ac"/><use transform="matrix(0.09259259259259257,0,0,0.09259259259259257,131.29629629629628,0)" xlink:href="#D"/><use transform="matrix(0.09259259259259257,0,0,0.09259259259259257,142.31481481481478,0)" xlink:href="#ad"/></g><path fill="#333" d="M185-189c-5-48-123-54-124 2 14 75 158 14 163 119 3 78-121 87-175 55-17-10-28-26-33-46l33-7c5 56 141 63 141-1 0-78-155-14-162-118-5-82 145-84 179-34 5 7 8 16 11 25" id="ae"/><path fill="#333" d="M96-169c-40 0-48 33-48 73s9 75 48 75c24 0 41-14 43-38l32 2c-6 37-31 61-74 61-59 0-76-41-82-99-10-93 101-131 147-64 4 7 5 14 7 22l-32 3c-4-21-16-35-41-35" id="af"/><path fill="#333" d="M114-163C36-179 61-72 57 0H25l-1-190h30c1 12-1 29 2 39 6-27 23-49 58-41v29" id="ag"/><path fill="#333" d="M59-47c-2 24 18 29 38 22v24C64 9 27 4 27-40v-127H5v-23h24l9-43h21v43h35v23H59v120" id="ah"/><path fill="#333" d="M179-190L93 31C79 59 56 82 12 73V49c39 6 53-20 64-50L1-190h34L92-34l54-156h33" id="ai"/><g id="h"><use transform="matrix(0.09259259259259256,0,0,0.09259259259259256,0,0)" xlink:href="#ae"/><use transform="matrix(0.09259259259259256,0,0,0.09259259259259256,22.222222222222214,0)" xlink:href="#N"/><use transform="matrix(0.09259259259259256,0,0,0.09259259259259256,40.740740740740726,0)" xlink:href="#af"/><use transform="matrix(0.09259259259259256,0,0,0.09259259259259256,57.40740740740739,0)" xlink:href="#P"/><use transform="matrix(0.09259259259259256,0,0,0.09259259259259256,75.9259259259259,0)" xlink:href="#ag"/><use transform="matrix(0.09259259259259256,0,0,0.09259259259259256,86.94444444444441,0)" xlink:href="#Q"/><use transform="matrix(0.09259259259259256,0,0,0.09259259259259256,94.25925925925922,0)" xlink:href="#ah"/><use transform="matrix(0.09259259259259256,0,0,0.09259259259259256,103.51851851851848,0)" xlink:href="#ai"/></g><path fill="#333" d="M141-36C126-15 110 5 73 4 37 3 15-17 15-53c-1-64 63-63 125-63 3-35-9-54-41-54-24 1-41 7-42 31l-33-3c5-37 33-52 76-52 45 0 72 20 72 64v82c-1 20 7 32 28 27v20c-31 9-61-2-59-35zM48-53c0 20 12 33 32 33 41-3 63-29 60-74-43 2-92-5-92 41" id="aj"/><path fill="#333" d="M177-190C167-65 218 103 67 71c-23-6-38-20-44-43l32-5c15 47 100 32 89-28v-30C133-14 115 1 83 1 29 1 15-40 15-95c0-56 16-97 71-98 29-1 48 16 59 35 1-10 0-23 2-32h30zM94-22c36 0 50-32 50-73 0-42-14-75-50-75-39 0-46 34-46 75s6 73 46 73" id="ak"/><g id="i"><use transform="matrix(0.09259259259259256,0,0,0.09259259259259256,0,0)" xlink:href="#ae"/><use transform="matrix(0.09259259259259256,0,0,0.09259259259259256,22.222222222222214,0)" xlink:href="#af"/><use transform="matrix(0.09259259259259256,0,0,0.09259259259259256,38.88888888888887,0)" xlink:href="#aj"/><use transform="matrix(0.09259259259259256,0,0,0.09259259259259256,57.40740740740739,0)" xlink:href="#U"/><use transform="matrix(0.09259259259259256,0,0,0.09259259259259256,75.9259259259259,0)" xlink:href="#U"/><use transform="matrix(0.09259259259259256,0,0,0.09259259259259256,94.4444444444444,0)" xlink:href="#Q"/><use transform="matrix(0.09259259259259256,0,0,0.09259259259259256,101.7592592592592,0)" xlink:href="#U"/><use transform="matrix(0.09259259259259256,0,0,0.09259259259259256,120.27777777777771,0)" xlink:href="#ak"/></g><path fill="#333" d="M101-234c-31-9-42 10-38 44h38v23H63V0H32v-167H5v-23h27c-7-52 17-82 69-68v24" id="al"/><path fill="#333" d="M206 0h-36l-40-164L89 0H53L-1-190h32L70-26l43-164h34l41 164 42-164h31" id="am"/><g id="j"><use transform="matrix(0.09259259259259256,0,0,0.09259259259259256,0,0)" xlink:href="#ae"/><use transform="matrix(0.09259259259259256,0,0,0.09259259259259256,22.222222222222214,0)" xlink:href="#L"/><use transform="matrix(0.09259259259259256,0,0,0.09259259259259256,40.740740740740726,0)" xlink:href="#al"/><use transform="matrix(0.09259259259259256,0,0,0.09259259259259256,49.999999999999986,0)" xlink:href="#ah"/><use transform="matrix(0.09259259259259256,0,0,0.09259259259259256,59.25925925925924,0)" xlink:href="#am"/><use transform="matrix(0.09259259259259256,0,0,0.09259259259259256,83.2407407407407,0)" xlink:href="#aj"/><use transform="matrix(0.09259259259259256,0,0,0.09259259259259256,101.7592592592592,0)" xlink:href="#ag"/><use transform="matrix(0.09259259259259256,0,0,0.09259259259259256,112.77777777777774,0)" xlink:href="#N"/></g><path d="M108 0H70L1-190h34L89-25l56-165h34" id="an"/><g id="k"><use transform="matrix(0.09259259259259257,0,0,0.09259259259259257,0,0)" xlink:href="#V"/><use transform="matrix(0.09259259259259257,0,0,0.09259259259259257,22.222222222222218,0)" xlink:href="#D"/><use transform="matrix(0.09259259259259257,0,0,0.09259259259259257,33.24074074074073,0)" xlink:href="#Z"/><use transform="matrix(0.09259259259259257,0,0,0.09259259259259257,40.55555555555554,0)" xlink:href="#an"/><use transform="matrix(0.09259259259259257,0,0,0.09259259259259257,57.22222222222221,0)" xlink:href="#H"/><use transform="matrix(0.09259259259259257,0,0,0.09259259259259257,75.74074074074072,0)" xlink:href="#E"/><use transform="matrix(0.09259259259259257,0,0,0.09259259259259257,84.99999999999997,0)" xlink:href="#B"/></g><g id="l"><use transform="matrix(0.09259259259259257,0,0,0.09259259259259257,0,0)" xlink:href="#aa"/><use transform="matrix(0.09259259259259257,0,0,0.09259259259259257,23.981481481481477,0)" xlink:href="#B"/><use transform="matrix(0.09259259259259257,0,0,0.09259259259259257,42.49999999999999,0)" xlink:href="#ab"/><use transform="matrix(0.09259259259259257,0,0,0.09259259259259257,61.018518518518505,0)" xlink:href="#ac"/><use transform="matrix(0.09259259259259257,0,0,0.09259259259259257,79.53703703703702,0)" xlink:href="#F"/><use transform="matrix(0.09259259259259257,0,0,0.09259259259259257,96.20370370370371,0)" xlink:href="#Z"/><use transform="matrix(0.09259259259259257,0,0,0.09259259259259257,103.51851851851849,0)" xlink:href="#E"/><use transform="matrix(0.09259259259259257,0,0,0.09259259259259257,112.77777777777776,0)" xlink:href="#ac"/><use transform="matrix(0.09259259259259257,0,0,0.09259259259259257,131.29629629629628,0)" xlink:href="#D"/><use transform="matrix(0.09259259259259257,0,0,0.09259259259259257,142.31481481481478,0)" xlink:href="#ad"/></g><path fill="#1071e5" d="M212 0h-52l-8-156L82 0H30L17-190h46l2 145 66-145h53l8 145 60-145h47" id="ao"/><path fill="#1071e5" d="M87-160c15-17 32-34 63-34 99 1 59 172-1 192-36 12-78 0-87-29L54 0H6l52-261h49zm71 38c0-24-5-37-29-37-46 0-55 46-57 89-1 25 12 40 35 40 44 0 51-50 51-92" id="ap"/><path fill="#1071e5" d="M150-105c8-23 8-54-22-51-68 7-54 98-72 156H6l50-261h50L85-158c15-20 33-36 66-36 95 0 34 128 28 194h-49" id="aq"/><path fill="#1071e5" d="M128 0L95-87 70-74 55 0H6l51-261h49L77-111l82-79h56l-83 74L180 0h-52" id="ar"/><g id="m"><use transform="matrix(0.0925925925925926,0,0,0.0925925925925926,0,0)" xlink:href="#ao"/><use transform="matrix(0.0925925925925926,0,0,0.0925925925925926,25.925925925925927,0)" xlink:href="#z"/><use transform="matrix(0.0925925925925926,0,0,0.0925925925925926,44.44444444444444,0)" xlink:href="#ap"/><use transform="matrix(0.0925925925925926,0,0,0.0925925925925926,64.72222222222223,0)" xlink:href="#aq"/><use transform="matrix(0.0925925925925926,0,0,0.0925925925925926,85,0)" xlink:href="#x"/><use transform="matrix(0.0925925925925926,0,0,0.0925925925925926,105.27777777777777,0)" xlink:href="#x"/><use transform="matrix(0.0925925925925926,0,0,0.0925925925925926,125.55555555555554,0)" xlink:href="#ar"/></g><path fill="#008a0e" d="M178-136c88 48 22 151-73 140C49-3 12-15 4-64l51-9c1 50 111 53 115 3-16-63-132-20-133-112 0-93 190-91 199-10l-50 12c-4-41-93-50-97-4 7 38 59 32 89 48" id="as"/><path fill="#008a0e" d="M114-194c63-2 87 48 72 110H63c-3 28 1 55 31 54 21-1 32-13 37-29l44 13C160-14 137 4 91 4 41 4 11-22 11-73c0-71 33-119 103-121zm30 77c14-47-50-61-67-22-3 6-6 13-8 22h75" id="at"/><path fill="#008a0e" d="M109 0H50L19-190h51L86-37l77-153h54" id="au"/><path fill="#008a0e" d="M84-151c13-25 34-51 72-40l-8 41C67-170 71-64 56 0H6l36-190h47" id="av"/><path fill="#008a0e" d="M50-224l7-37h49l-7 37H50zM6 0l37-190h49L55 0H6" id="aw"/><path fill="#008a0e" d="M72-63c-8 23 5 39 32 30L98-1C54 14 12-6 23-64l18-93H15l7-33h28l24-45h31l-8 45h35l-6 33H90" id="ax"/><path fill="#008a0e" d="M144-137c-1-29-70-35-71-2 16 41 103 10 103 80C176 9 79 16 32-9 18-17 9-31 4-48l44-6c3 32 80 36 82 1-15-42-103-11-103-82 0-77 157-79 161-8" id="ay"/><g id="n"><use transform="matrix(0.08641975308641976,0,0,0.08641975308641976,0,0)" xlink:href="#as"/><use transform="matrix(0.08641975308641976,0,0,0.08641975308641976,20.740740740740744,0)" xlink:href="#at"/><use transform="matrix(0.08641975308641976,0,0,0.08641975308641976,38.0246913580247,0)" xlink:href="#au"/><use transform="matrix(0.08641975308641976,0,0,0.08641975308641976,55.308641975308646,0)" xlink:href="#at"/><use transform="matrix(0.08641975308641976,0,0,0.08641975308641976,72.5925925925926,0)" xlink:href="#av"/><use transform="matrix(0.08641975308641976,0,0,0.08641975308641976,84.69135802469137,0)" xlink:href="#aw"/><use transform="matrix(0.08641975308641976,0,0,0.08641975308641976,93.33333333333334,0)" xlink:href="#ax"/><use transform="matrix(0.08641975308641976,0,0,0.08641975308641976,103.61728395061729,0)" xlink:href="#aw"/><use transform="matrix(0.08641975308641976,0,0,0.08641975308641976,112.25925925925927,0)" xlink:href="#at"/><use transform="matrix(0.08641975308641976,0,0,0.08641975308641976,129.54320987654322,0)" xlink:href="#ay"/></g><path fill="#008a0e" d="M22-91v-56l180-69v40L56-119l146 57v40" id="az"/><use transform="matrix(0.08641975308641976,0,0,0.08641975308641976,0,0)" xlink:href="#az" id="o"/><path fill="#008a0e" d="M212 0l43-212L151 0h-37L90-212C82-137 65-70 52 0H6l48-248h70l20 187 93-187h69L258 0h-46" id="aA"/><path fill="#008a0e" d="M132-28C118-9 101 4 69 4 30 4 10-23 10-62c0-70 24-129 92-132 31-1 47 14 56 35l19-102h49L179 0h-49zM62-69c0 22 7 39 29 39 45-2 54-45 57-90 2-27-10-40-33-40-44 0-53 48-53 91" id="aB"/><path fill="#008a0e" d="M69 3c-96 0-34-126-28-193h49L65-57c6 42 62 18 71-6 14-38 17-86 28-127h50L178 0h-47c0-11 4-26 3-33-14 20-30 37-65 36" id="aC"/><path fill="#008a0e" d="M255-194c90 0 29 129 24 194h-49l25-136c-7-39-53-14-60 9-12 38-18 85-28 127h-49l25-136c2-29-39-23-50-7C69-108 68-47 56 0H6l36-190h48c-1 10-6 24-4 32 12-20 27-36 57-36s46 15 50 41c14-21 29-41 62-41" id="aD"/><g id="p"><use transform="matrix(0.08641975308641976,0,0,0.08641975308641976,0,0)" xlink:href="#aA"/><use transform="matrix(0.08641975308641976,0,0,0.08641975308641976,25.83950617283951,0)" xlink:href="#at"/><use transform="matrix(0.08641975308641976,0,0,0.08641975308641976,43.12345679012346,0)" xlink:href="#aB"/><use transform="matrix(0.08641975308641976,0,0,0.08641975308641976,62.04938271604939,0)" xlink:href="#aw"/><use transform="matrix(0.08641975308641976,0,0,0.08641975308641976,70.69135802469137,0)" xlink:href="#aC"/><use transform="matrix(0.08641975308641976,0,0,0.08641975308641976,89.61728395061729,0)" xlink:href="#aD"/></g><path fill="#e81313" d="M178-136c88 48 22 151-73 140C49-3 12-15 4-64l51-9c1 50 111 53 115 3-16-63-132-20-133-112 0-93 190-91 199-10l-50 12c-4-41-93-50-97-4 7 38 59 32 89 48" id="aE"/><path fill="#e81313" d="M114-194c63-2 87 48 72 110H63c-3 28 1 55 31 54 21-1 32-13 37-29l44 13C160-14 137 4 91 4 41 4 11-22 11-73c0-71 33-119 103-121zm30 77c14-47-50-61-67-22-3 6-6 13-8 22h75" id="aF"/><path fill="#e81313" d="M109 0H50L19-190h51L86-37l77-153h54" id="aG"/><path fill="#e81313" d="M84-151c13-25 34-51 72-40l-8 41C67-170 71-64 56 0H6l36-190h47" id="aH"/><path fill="#e81313" d="M50-224l7-37h49l-7 37H50zM6 0l37-190h49L55 0H6" id="aI"/><path fill="#e81313" d="M72-63c-8 23 5 39 32 30L98-1C54 14 12-6 23-64l18-93H15l7-33h28l24-45h31l-8 45h35l-6 33H90" id="aJ"/><path fill="#e81313" d="M144-137c-1-29-70-35-71-2 16 41 103 10 103 80C176 9 79 16 32-9 18-17 9-31 4-48l44-6c3 32 80 36 82 1-15-42-103-11-103-82 0-77 157-79 161-8" id="aK"/><g id="q"><use transform="matrix(0.08641975308641973,0,0,0.08641975308641973,0,0)" xlink:href="#aE"/><use transform="matrix(0.08641975308641973,0,0,0.08641975308641973,20.740740740740737,0)" xlink:href="#aF"/><use transform="matrix(0.08641975308641973,0,0,0.08641975308641973,38.02469135802468,0)" xlink:href="#aG"/><use transform="matrix(0.08641975308641973,0,0,0.08641975308641973,55.30864197530863,0)" xlink:href="#aF"/><use transform="matrix(0.08641975308641973,0,0,0.08641975308641973,72.59259259259258,0)" xlink:href="#aH"/><use transform="matrix(0.08641975308641973,0,0,0.08641975308641973,84.69135802469134,0)" xlink:href="#aI"/><use transform="matrix(0.08641975308641973,0,0,0.08641975308641973,93.33333333333331,0)" xlink:href="#aJ"/><use transform="matrix(0.08641975308641973,0,0,0.08641975308641973,103.61728395061726,0)" xlink:href="#aI"/><use transform="matrix(0.08641975308641973,0,0,0.08641975308641973,112.25925925925924,0)" xlink:href="#aF"/><use transform="matrix(0.08641975308641973,0,0,0.08641975308641973,129.5432098765432,0)" xlink:href="#aK"/></g><path fill="#e81313" d="M22-22v-40l146-57-146-57v-40l180 69v56" id="aL"/><path fill="#e81313" d="M22-148v-39h180v39H22zm0 97v-39h180v39H22" id="aM"/><g id="r"><use transform="matrix(0.08641975308641973,0,0,0.08641975308641973,0,0)" xlink:href="#aL"/><use transform="matrix(0.08641975308641973,0,0,0.08641975308641973,18.148148148148145,0)" xlink:href="#aM"/></g><path fill="#e81313" d="M212 0l43-212L151 0h-37L90-212C82-137 65-70 52 0H6l48-248h70l20 187 93-187h69L258 0h-46" id="aN"/><path fill="#e81313" d="M132-28C118-9 101 4 69 4 30 4 10-23 10-62c0-70 24-129 92-132 31-1 47 14 56 35l19-102h49L179 0h-49zM62-69c0 22 7 39 29 39 45-2 54-45 57-90 2-27-10-40-33-40-44 0-53 48-53 91" id="aO"/><path fill="#e81313" d="M69 3c-96 0-34-126-28-193h49L65-57c6 42 62 18 71-6 14-38 17-86 28-127h50L178 0h-47c0-11 4-26 3-33-14 20-30 37-65 36" id="aP"/><path fill="#e81313" d="M255-194c90 0 29 129 24 194h-49l25-136c-7-39-53-14-60 9-12 38-18 85-28 127h-49l25-136c2-29-39-23-50-7C69-108 68-47 56 0H6l36-190h48c-1 10-6 24-4 32 12-20 27-36 57-36s46 15 50 41c14-21 29-41 62-41" id="aQ"/><g id="s"><use transform="matrix(0.08641975308641973,0,0,0.08641975308641973,0,0)" xlink:href="#aN"/><use transform="matrix(0.08641975308641973,0,0,0.08641975308641973,25.8395061728395,0)" xlink:href="#aF"/><use transform="matrix(0.08641975308641973,0,0,0.08641975308641973,43.12345679012344,0)" xlink:href="#aO"/><use transform="matrix(0.08641975308641973,0,0,0.08641975308641973,62.04938271604937,0)" xlink:href="#aI"/><use transform="matrix(0.08641975308641973,0,0,0.08641975308641973,70.69135802469134,0)" xlink:href="#aP"/><use transform="matrix(0.08641975308641973,0,0,0.08641975308641973,89.61728395061726,0)" xlink:href="#aQ"/></g><path fill="#16191f" d="M23-100v-36l175-74v27L47-118l151 64v27" id="aR"/><path fill="#16191f" d="M194-120c59 52 2 134-86 124-53-6-90-18-98-63l31-7c8 30 29 43 70 43 46 0 84-17 71-62-32-43-135-20-137-98-3-89 178-90 191-16l-30 9c-8-48-127-53-127 5 0 53 81 35 115 65" id="aS"/><path fill="#16191f" d="M51-54c-9 22 5 41 31 30L79-1C43 14 10-4 19-52l22-115H19l5-23h22l19-43h21l-9 43h35l-4 23H73" id="aT"/><path fill="#16191f" d="M30-147c31-64 166-65 159 27C183-49 158 1 86 4 9 8 1-88 30-147zM88-20c53 0 68-48 68-100 0-31-11-51-44-50-52 1-68 46-68 97 0 32 13 53 44 53" id="aU"/><path fill="#16191f" d="M67-162c32-53 139-36 121 50C175-51 163 2 97 4 68 4 52-11 42-31 38 6 28 39 22 75H-9l50-265h29c-1 10 0 20-3 28zm89 36c0-26-10-43-35-43-54 0-67 50-69 103-1 29 14 45 42 46 53 0 62-58 62-106" id="aV"/><path fill="#16191f" d="M238-179c0 84-86 86-175 82L45 0H11l48-248c82 0 179-12 179 69zm-34 1c0-53-64-42-116-43l-19 98c63 0 135 9 135-55" id="aW"/><path fill="#16191f" d="M50-231l6-30h32l-6 30H50zM6 0l37-190h31L37 0H6" id="aX"/><path fill="#16191f" d="M111-194c62-3 86 47 72 106H45c-7 38 6 69 45 68 27-1 43-14 53-32l24 11C152-15 129 4 87 4 38 3 12-23 12-71c0-70 32-119 99-123zm44 81c14-66-71-72-95-28-4 8-8 17-11 28h106" id="aY"/><path fill="#16191f" d="M6 0l50-261h32L37 0H6" id="aZ"/><path fill="#16191f" d="M67-158c22-48 132-52 116 29L158 0h-32l25-140c3-38-53-32-70-12C52-117 51-52 38 0H6l36-190h30" id="ba"/><path fill="#16191f" d="M11 0l48-248h184l-5 28H87l-15 79h140l-5 27H67L50-27h158l-5 27H11" id="bb"/><path fill="#16191f" d="M124 0L87-78 21 0h-35l86-98-46-92h33l34 74 61-74h37l-83 92 50 98h-34" id="bc"/><path fill="#16191f" d="M44-68c0 29 11 47 38 47 30 0 42-19 51-41l28 9C148-21 126 4 82 4 31 4 10-29 12-85c3-77 74-140 146-93 12 8 15 23 18 40l-31 5c-1-22-13-36-36-36-52 0-65 49-65 101" id="bd"/><path fill="#16191f" d="M67 3c-93-2-31-127-26-193h32L48-50c-3 39 53 32 70 12 30-34 30-101 43-152h32L157 0h-30c1-10 6-24 4-33-14 20-29 37-64 36" id="be"/><path fill="#16191f" d="M23-27v-27l151-64-151-65v-27l175 74v36" id="bf"/><g id="t"><use transform="matrix(0.06172839506172839,0,0,0.06172839506172839,0,0)" xlink:href="#aR"/><use transform="matrix(0.06172839506172839,0,0,0.06172839506172839,12.962962962962962,0)" xlink:href="#aS"/><use transform="matrix(0.06172839506172839,0,0,0.06172839506172839,27.777777777777775,0)" xlink:href="#aT"/><use transform="matrix(0.06172839506172839,0,0,0.06172839506172839,33.95061728395061,0)" xlink:href="#aU"/><use transform="matrix(0.06172839506172839,0,0,0.06172839506172839,46.29629629629629,0)" xlink:href="#aV"/><use transform="matrix(0.06172839506172839,0,0,0.06172839506172839,58.64197530864197,0)" xlink:href="#aW"/><use transform="matrix(0.06172839506172839,0,0,0.06172839506172839,73.45679012345678,0)" xlink:href="#aX"/><use transform="matrix(0.06172839506172839,0,0,0.06172839506172839,78.33333333333333,0)" xlink:href="#aV"/><use transform="matrix(0.06172839506172839,0,0,0.06172839506172839,90.67901234567901,0)" xlink:href="#aY"/><use transform="matrix(0.06172839506172839,0,0,0.06172839506172839,103.0246913580247,0)" xlink:href="#aZ"/><use transform="matrix(0.06172839506172839,0,0,0.06172839506172839,107.90123456790124,0)" xlink:href="#aX"/><use transform="matrix(0.06172839506172839,0,0,0.06172839506172839,112.77777777777779,0)" xlink:href="#ba"/><use transform="matrix(0.06172839506172839,0,0,0.06172839506172839,125.12345679012347,0)" xlink:href="#aY"/><use transform="matrix(0.06172839506172839,0,0,0.06172839506172839,137.46913580246914,0)" xlink:href="#bb"/><use transform="matrix(0.06172839506172839,0,0,0.06172839506172839,152.28395061728395,0)" xlink:href="#bc"/><use transform="matrix(0.06172839506172839,0,0,0.06172839506172839,163.39506172839506,0)" xlink:href="#aY"/><use transform="matrix(0.06172839506172839,0,0,0.06172839506172839,175.74074074074073,0)" xlink:href="#bd"/><use transform="matrix(0.06172839506172839,0,0,0.06172839506172839,186.85185185185185,0)" xlink:href="#be"/><use transform="matrix(0.06172839506172839,0,0,0.06172839506172839,199.19753086419752,0)" xlink:href="#aT"/><use transform="matrix(0.06172839506172839,0,0,0.06172839506172839,205.37037037037035,0)" xlink:href="#aX"/><use transform="matrix(0.06172839506172839,0,0,0.06172839506172839,210.24691358024688,0)" xlink:href="#aU"/><use transform="matrix(0.06172839506172839,0,0,0.06172839506172839,222.59259259259255,0)" xlink:href="#ba"/><use transform="matrix(0.06172839506172839,0,0,0.06172839506172839,234.93827160493822,0)" xlink:href="#bf"/></g><path d="M205 0l-28-72H64L36 0H1l101-248h38L239 0h-34zm-38-99l-47-123c-12 45-31 82-46 123h93" id="bg"/><path d="M101-234c-31-9-42 10-38 44h38v23H63V0H32v-167H5v-23h27c-7-52 17-82 69-68v24" id="bh"/><g id="u"><use transform="matrix(0.06172839506172839,0,0,0.06172839506172839,0,0)" xlink:href="#bg"/><use transform="matrix(0.06172839506172839,0,0,0.06172839506172839,14.814814814814813,0)" xlink:href="#D"/><use transform="matrix(0.06172839506172839,0,0,0.06172839506172839,22.160493827160494,0)" xlink:href="#E"/><use transform="matrix(0.06172839506172839,0,0,0.06172839506172839,28.333333333333332,0)" xlink:href="#Z"/><use transform="matrix(0.06172839506172839,0,0,0.06172839506172839,33.20987654320987,0)" xlink:href="#bh"/><use transform="matrix(0.06172839506172839,0,0,0.06172839506172839,39.382716049382715,0)" xlink:href="#H"/><use transform="matrix(0.06172839506172839,0,0,0.06172839506172839,51.72839506172839,0)" xlink:href="#C"/><use transform="matrix(0.06172839506172839,0,0,0.06172839506172839,62.839506172839506,0)" xlink:href="#E"/><use transform="matrix(0.06172839506172839,0,0,0.06172839506172839,69.01234567901234,0)" xlink:href="#F"/></g></defs></g></svg>